<?xml version="1.0" encoding="utf-8"?>
<!-- Generator: Adobe Illustrator 21.0.0, SVG Export Plug-In . SVG Version: 6.00 Build 0)  -->
<svg version="1.1" xmlns="http://www.w3.org/2000/svg" xmlns:xlink="http://www.w3.org/1999/xlink" x="0px" y="0px"
	 viewBox="0 0 2000 2000" style="enable-background:new 0 0 2000 2000;" xml:space="preserve">
<style type="text/css">
	.st0{fill:#99837C;stroke:#000000;stroke-width:2;stroke-miterlimit:10;}
	.st1{fill:#603C35;stroke:#000000;stroke-width:2;stroke-miterlimit:10;}
	.st2{fill:#99756C;stroke:#000000;stroke-width:2;stroke-miterlimit:10;}
	.st3{fill:#282727;stroke:#000000;stroke-width:2;stroke-miterlimit:10;}
	.st4{fill:#CBCED1;stroke:#000000;stroke-width:2;stroke-miterlimit:10;}
	.st5{fill:#F8A37E;stroke:#000000;stroke-width:2;stroke-miterlimit:10;}
	.st6{fill:#2F53A4;stroke:#000000;stroke-width:2;stroke-miterlimit:10;}
	.st7{fill:#282727;}
	.st8{fill:#F3F3F3;}
	.st9{fill:none;stroke:#F9F9FA;stroke-miterlimit:10;}
	.st10{fill:none;stroke:#282727;stroke-width:3;stroke-miterlimit:10;}
</style>
<g id="Layer_1">
	<g>
		<path class="st0" d="M1517.4,57l-969.2,255c112.2,397.9,112.2,561.1,112.2,561.1l856.9-147.9V57z"/>
		<polygon class="st1" points="660.4,873.2 716.6,908.9 1777.5,873.2 1517.4,725.3 		"/>
		<polygon class="st2" points="1517.4,725.3 1781,873.2 1823.4,337.6 1517.4,57 		"/>
	</g>
	<g>
		<path class="st3" d="M483.9,1512.2c53.6-25.5,295.8-130.1,295.8-130.1S606.3,1326.1,483.9,1512.2z"/>
		<path class="st4" d="M591,1211.3c0,0-5.1,43.4-12.8,58.7s-53.6-7.7-53.6-7.7s-35.7-20.4-35.7-33.2c0-12.8-18.9-16.6-25.5-40.8
			c-7.7-28.1-17.9-48.5-2.6-51c8-1.3,12.4-11.3,28.6-19.2c-12.2-24.3-102.6-80.2-143.4-123.6c-10.2,5.1-206.6,170.9-206.6,170.9
			s153,153,344.3,346.9c122.4-186.2,295.8-130.1,295.8-130.1l-153-160.7C611.4,1224,591,1211.3,591,1211.3z"/>
		<path class="st5" d="M833.3,407.9l-102,28.1l-5.1,81.6L695.6,538c0,0-12.8,99.5,10.2,114.8s203.4,130.6,205.9,176.5
			c0,0,74.9,2.1,129.1,19.7c51.1,16.6,162.3,53.7,271.9,25.6c0,0,40.8-74,38.3-137.7c-1.5-37.8-51.4-98.9-91.9-142.4
			c0.1,0.6,17.1,96.4-249.9,55.7l-13.5,19.3l13.5-19.3l4.5-24.2l-4.5,24.2c267,40.7,250-55.1,249.9-55.7
			c-27.7-29.8-54.2-53.5-54.2-53.5l22.7-61.6c0.5-1.4-0.4-2.9-1.8-3.2l-131.4-23.5c-4.4-8.8-21.3-27-21.3-27s-102-10.2-125,0
			c-23,10.2-156.3,98.3-190.4,263.4C791.7,524,925.1,436,948.1,425.7c23-10.2,125,0,125,0s33.2-201.5-79.1-201.5
			C881.8,224.3,833.3,407.9,833.3,407.9 M1049.9,467.7c12.8,0,23.2,10.4,23.2,23.2c0,12.8-10.4,23.2-23.2,23.2
			c-12.8,0-23.2-10.4-23.2-23.2C1026.7,478,1037.1,467.7,1049.9,467.7z"/>
		<path class="st6" d="M1405.1,1315.4c6.5-66.9,9.7-206.1,9.7-206.1s66.3-66.3,117.3-112.2c51-45.9,31.8-116.8,31.8-116.8
			l-251.2-5.6c-109.7,28.1-240.5-18.4-268.2-27.9c-30.3-10.4-132.9-17.5-132.9-17.5c-280.5,107.1-323.3,244.3-340,296.4l63.8,40.8
			c0,0,141.7-149,164.6-156.7s63.8,7.7,63.8,7.7v278C1266.6,1501.8,1405.1,1315.4,1405.1,1315.4z"/>
		<path class="st5" d="M575.7,1109.3c-46.7-4.2-71.3,1.5-86.2,8.8l0,0l0,0c-16.2,8-20.6,17.9-28.6,19.2c-15.3,2.6-5.1,23,2.6,51
			c6.6,24.2,25.5,28.1,25.5,40.8c0,12.8,35.7,33.2,35.7,33.2s45.9,23,53.6,7.7s12.8-58.7,12.8-58.7s20.4,12.8,35.7,10.2
			c15.3-2.5,24-70.9,24-70.9C599.7,1160.8,575.7,1109.3,575.7,1109.3z"/>
		<path class="st3" d="M1784.6,1726.5c-15.3-5.1-51,38.3-91.8,45.9c12.8-45.9,12.8-147.9-12.8-178.5
			c-25.5-30.6-239.7-188.7-280.5-244.8c2.1-4.1,3.9-16.6,5.6-33.6c0,0-138.4,186.4-541.2-20c0,0-58.7,74-58.7,119.9
			c0,45.9-68.9,209.1-114.8,237.2s-181.1,7.7-193.8-15.3c-12.8-23-48.5-30.6-79.1-7.7s-7.7,237.2,12.8,239.7
			c20.4,2.5,35.7-2.6,35.7-2.6s-2.5-61.2,0-130.1c0,0,130.1,99.5,214.2,99.5s410.6-176,410.6-176l359.6-5.1
			c0,0,96.9,249.9,193.8,249.9c96.9,0,158.1-86.7,165.8-102C1817.8,1787.7,1799.9,1731.6,1784.6,1726.5z"/>
		<circle class="st3" cx="1049.9" cy="490.8" r="23.2"/>
	</g>
	<path class="st7" d="M997,224.3c-116,0-163.1,172.9-163.7,183.6c-0.5,10.1,2.9,104.4,3,115.7c12-15,24.3-25.7,36.4-37.3
		c35.7-35.7,68.2-56,78.4-60.6c30.6-11.4,122,0,122,0S1113,224.3,997,224.3z"/>
	<g>
		<path class="st8" d="M1137.7,1054.7c-2.9,2.4-9.1,5.6-17.5,7.6c-19.5,4.6-37.1-4.2-42.5-26.8c-5.2-21.6,6-39.8,27.4-44.9
			c8.6-2.1,14.5-1.5,17.1-0.8l-0.4,7.8c-3.8-0.8-8.9-0.9-14.6,0.5c-16.2,3.9-24.5,16.8-20.2,34.9c4,16.9,16.4,25.5,33.2,21.5
			c5.4-1.3,10.7-3.7,13.9-6.3L1137.7,1054.7z"/>
		<path class="st8" d="M1141,985.6c5.5-1.3,12.1-2.5,19.3-3.2c13.1-1.2,22.7,1.1,29.5,6.3c6.8,5.2,11.2,13.1,12.2,24.5
			c1,11.6-1.7,21.3-7.8,28.4c-6,7.2-16.6,11.7-30.4,12.9c-6.5,0.6-12,0.7-16.7,0.6L1141,985.6z M1155.7,1047.4
			c2.3,0.2,5.7,0,9.3-0.3c19.5-1.7,29.2-13.6,27.5-32.7c-1.4-16.7-11.8-26.5-31.1-24.8c-4.7,0.4-8.3,1.2-10.6,1.9L1155.7,1047.4z"/>
		<path class="st8" d="M1226.1,1029.3l-9,21.8l-9.5-0.7l29.2-69.2l11,0.8l19.1,72.6l-9.8-0.7l-6-22.8L1226.1,1029.3z M1249.8,1023.8
			l-5.5-20.9c-1.2-4.7-2-9-2.8-13.2l-0.2,0c-1.4,4.1-2.8,8.4-4.5,12.6l-8.4,20L1249.8,1023.8z"/>
	</g>
	<g>
		<path class="st8" d="M996.2,1124.9c4.7-2.4,10.4-5,16.9-7.2c11.7-4,20.9-4.1,28.2-0.8c7.4,3.2,13.1,9.4,16.6,19.6
			c3.5,10.3,3.2,19.8-0.8,27.6c-3.9,7.9-12.5,14.4-24.8,18.5c-5.8,2-10.8,3.3-15,4.3L996.2,1124.9z M1023.3,1177.9
			c2.2-0.3,5.2-1.2,8.4-2.3c17.4-5.9,23.6-18.8,17.8-35.8c-4.9-14.9-16.6-21.5-33.8-15.7c-4.2,1.4-7.3,2.9-9.3,4.1L1023.3,1177.9z"
			/>
		<path class="st8" d="M1078.5,1145.2c2.5,11.5,10.8,14.8,19.3,13c6.1-1.2,9.6-3,12.5-5l2.7,5.8c-2.7,2-7.5,4.5-15,6
			c-14.4,2.9-24.9-4.9-27.8-19c-2.8-14.1,3.3-26.9,16.9-29.7c15.3-3.1,22.1,9.6,23.8,18.2c0.4,1.7,0.4,3.1,0.5,4L1078.5,1145.2z
			 M1102.2,1134.1c-1-5.4-5-13.4-14.6-11.5c-8.6,1.7-10.8,10.4-10.3,16.5L1102.2,1134.1z"/>
		<path class="st8" d="M1116.9,1089.9l8.6-1.1l8.7,69.6l-8.6,1.1L1116.9,1089.9z"/>
		<path class="st8" d="M1152.8,1095.2c0.3,2.9-1.6,5.5-5.1,5.8c-3.1,0.2-5.4-1.9-5.6-4.9c-0.2-3.1,1.8-5.6,5-5.8
			C1150.3,1089.9,1152.5,1092.1,1152.8,1095.2z M1148,1157l-3.8-47.6l8.7-0.7l3.8,47.6L1148,1157z"/>
		<path class="st8" d="M1172.6,1107.4l9.8,26.7c1.6,4.3,3,8.3,4,12.2l0.3,0c1-4,2.3-7.9,3.9-12.3l8.9-27l9.1-0.1l-18,48.1l-8.3,0.1
			l-18.9-47.5L1172.6,1107.4z"/>
		<path class="st8" d="M1221.5,1133.1c-0.6,11.7,6.6,17.1,15.2,17.7c6.2,0.4,10-0.4,13.4-1.6l1.1,6.3c-3.1,1.2-8.5,2.4-16.1,1.9
			c-14.7-1-22.8-11.2-21.8-25.6c1-14.4,10.2-25.1,24.1-24.2c15.6,1.1,18.8,15,18.2,23.8c-0.1,1.8-0.4,3.1-0.6,4L1221.5,1133.1z
			 M1247.3,1128.6c0.5-5.5-1.3-14.2-11.1-14.9c-8.8-0.6-13.2,7.2-14.3,13.2L1247.3,1128.6z"/>
		<path class="st8" d="M1267.8,1126.5c0.8-5.6,1.3-10.4,1.6-14.8l7.5,1l-1,9.3l0.4,0.1c3-6.1,8.7-9.4,14.5-8.6
			c1,0.1,1.6,0.3,2.4,0.6l-1.1,8.1c-0.9-0.3-1.7-0.5-2.9-0.7c-6.1-0.8-11,3.2-13,9.5c-0.4,1.1-0.7,2.5-0.9,4l-3.4,25.2l-8.5-1.2
			L1267.8,1126.5z"/>
		<path class="st8" d="M1309.3,1117.7l4.7,29.8c0.4,3.3,0.9,7.2,1.1,10.2l0.2,0c1.4-2.6,3.1-6,5-9.2l14.9-25.6l9,1.8l-19.5,30.8
			c-9.3,14.8-15.2,22.2-22,26.1c-4.9,2.8-9.4,3.4-11.6,3.4l-0.7-7.6c2.3-0.2,5.3-1,8.3-2.7c2.7-1.4,6.3-4.1,9.1-8
			c0.6-0.8,1-1.4,1.1-1.9c0.1-0.5,0-1.2-0.1-2.3l-8.6-46.7L1309.3,1117.7z"/>
	</g>
	<path class="st9" d="M1062.2,851.7c-1.8-4.6,210.6,207.5,253.6,22.9"/>
	<line class="st10" x1="1015.2" y1="435.9" x2="992.9" y2="483.7"/>
</g>
<g id="Layer_2">
	<path class="st6" d="M833.3,407.9l-102,28.1l-5.1,81.6l-29.8,19.9c0,0-9.6,60.3-1.2,94.6c0,0,1.9,11.9,6.2,16.3
		s56.2,40.8,56.2,40.8s13.2-88.2,78.6-165.5c-0.6-21.3-3-110.6-3-110.6"/>
</g>
</svg>
